STARTFONT 2.1
COMMENT "20-point 3270 font, Greek character set"
COMMENT "Uses nonstandard ordering:"
COMMENT " Page 0: EBCDIC Greek set (CP 875), CG order"
COMMENT " Page 1: EBCDIC APL/APL2 set, CG order (incomplete)"
COMMENT " Page 2: (first 16 characters only) DEC line-drawing characters from"
COMMENT "  fixed-width X fonts"
COMMENT ""
COMMENT "Copyright (c) 1995-2009, Paul Mattes."
COMMENT "Copyright (c) 2000, Mantzios Achilleus"
COMMENT "All rights reserved."
COMMENT ""
COMMENT "Redistribution and use in source and binary forms, with or"
COMMENT "without modification, are permitted provided that the following"
COMMENT "conditions are met:"
COMMENT "    * Redistributions of source code must retain the above"
COMMENT "      copyright notice, this list of conditions and the following"
COMMENT "      disclaimer."
COMMENT "    * Redistributions in binary form must reproduce the above"
COMMENT "      copyright notice, this list of conditions and the following"
COMMENT "      disclaimer in the documentation and/or other materials"
COMMENT "      provided with the distribution."
COMMENT "    * Neither the name of Paul Mattes, Mantzios Achilleus nor their"
COMMENT "      contributors may be used to endorse or promote products "
COMMENT "      derived from this software without specific prior written "
COMMENT "      permission."
COMMENT ""
COMMENT "THIS SOFTWARE IS PROVIDED BY PAUL MATTES AND MANTZIOR ACHILLEUS"
COMMENT "'AS IS' AND ANY EXPRESS OR IMPLIED WARRANTIES, INCLUDING, BUT NOT "
COMMENT "LIMITED TO, THE IMPLIED WARRANTIES OF MERCHANTABILITY AND FITNESS FOR"
COMMENT "A PARTICULAR PURPOSE ARE DISCLAIMED. IN NO EVENT SHALL PAUL"
COMMENT "MATTES OR MANTZIOS ACHILLEUS BE LIABLE FOR ANY DIRECT, INDIRECT, "
COMMENT "INCIDENTAL, SPECIAL, EXEMPLARY, OR CONSEQUENTIAL DAMAGES (INCLUDING,"
COMMENT "BUT NOT LIMITED TO, PROCUREMENT OF SUBSTITUTE GOODS OR SERVICES; "
COMMENT "LOSS OF USE, DATA, OR PROFITS; OR BUSINESS INTERRUPTION) HOWEVER"

STARTCHAR null
ENCODING 0
SWIDTH 878 0
DWIDTH 10 0
BBX 10 20 0 -5
BITMAP
0000
0000
0000
0000
0000
0000
0000
0000
0000
0000
0000
0000
0000
0000
0000
0000
0000
0000
0000
0000
ENDCHAR
STARTCHAR nobreakspace
ENCODING 1
SWIDTH 878 0
DWIDTH 10 0
BBX 10 20 0 -5
BITMAP
0000
0000
0000
0000
0000
0000
0000
0000
0000
0000
0000
0000
0000
0000
0000
0000
0000
0000
0000
0000
ENDCHAR
STARTCHAR ff
ENCODING 2
SWIDTH 878 0
DWIDTH 10 0
BBX 10 20 0 -5
BITMAP
0000
0000
0000
0000
0000
0000
0000
0000
0000
0000
0000
0000
0000
0000
0000
0000
0000
0000
0000
0000
ENDCHAR
STARTCHAR cr
ENCODING 3
SWIDTH 878 0
DWIDTH 10 0
BBX 10 20 0 -5
BITMAP
0000
0000
0000
0000
0000
0000
0000
0000
0000
0000
0000
0000
0000
0000
0000
0000
0000
0000
0000
0000
ENDCHAR
STARTCHAR nl
ENCODING 4
SWIDTH 878 0
DWIDTH 10 0
BBX 10 20 0 -5
BITMAP
0000
0000
0000
0000
0000
0000
0000
0000
0000
0000
0000
0000
0000
0000
0000
0000
0000
0000
0000
0000
ENDCHAR
STARTCHAR em
ENCODING 5
SWIDTH 878 0
DWIDTH 10 0
BBX 10 20 0 -5
BITMAP
0000
0000
0000
0000
0000
0000
0000
0000
0000
0000
0000
0000
0000
0000
0000
0000
0000
0000
0000
0000
ENDCHAR
STARTCHAR eightones
ENCODING 6
SWIDTH 878 0
DWIDTH 10 0
BBX 10 20 0 -5
BITMAP
0000
0000
0000
0000
0000
1e00
3f00
7f80
7f80
7f80
7f80
3f00
1e00
0000
0000
0000
0000
0000
0000
0000
ENDCHAR
STARTCHAR hyphen
ENCODING 7
SWIDTH 878 0
DWIDTH 10 0
BBX 10 20 0 -5
BITMAP
0000
0000
0000
0000
0000
0000
0000
3f00
3f00
0000
0000
0000
0000
0000
0000
0000
0000
0000
0000
0000
ENDCHAR
STARTCHAR greater
ENCODING 8
SWIDTH 878 0
DWIDTH 10 0
BBX 10 20 0 -5
BITMAP
0000
0000
2000
3000
1800
0c00
0600
0300
0180
0300
0600
0c00
1800
3000
2000
0000
0000
0000
0000
0000
ENDCHAR
STARTCHAR less
ENCODING 9
SWIDTH 878 0
DWIDTH 10 0
BBX 10 20 0 -5
BITMAP
0000
0000
0100
0300
0600
0c00
1800
3000
6000
3000
1800
0c00
0600
0300
0100
0000
0000
0000
0000
0000
ENDCHAR
STARTCHAR bracketleft
ENCODING 10
SWIDTH 878 0
DWIDTH 10 0
BBX 10 20 0 -5
BITMAP
0000
0000
3f00
3000
3000
3000
3000
3000
3000
3000
3000
3000
3000
3000
3f00
0000
0000
0000
0000
0000
ENDCHAR
STARTCHAR bracketright
ENCODING 11
SWIDTH 878 0
DWIDTH 10 0
BBX 10 20 0 -5
BITMAP
0000
0000
3f00
0300
0300
0300
0300
0300
0300
0300
0300
0300
0300
0300
3f00
0000
0000
0000
0000
0000
ENDCHAR
STARTCHAR parenright
ENCODING 12
SWIDTH 878 0
DWIDTH 10 0
BBX 10 20 0 -5
BITMAP
0000
0000
3000
1800
0c00
0c00
0600
0600
0600
0600
0600
0c00
0c00
1800
3000
0000
0000
0000
0000
0000
ENDCHAR
STARTCHAR parenleft
ENCODING 13
SWIDTH 878 0
DWIDTH 10 0
BBX 10 20 0 -5
BITMAP
0000
0000
0300
0600
0c00
0c00
1800
1800
1800
1800
1800
0c00
0c00
0600
0300
0000
0000
0000
0000
0000
ENDCHAR
STARTCHAR braceright
ENCODING 14
SWIDTH 878 0
DWIDTH 10 0
BBX 10 20 0 -5
BITMAP
0000
0000
7800
0c00
0c00
0c00
0c00
0c00
0780
0c00
0c00
0c00
0c00
0c00
7800
0000
0000
0000
0000
0000
ENDCHAR
STARTCHAR braceleft
ENCODING 15
SWIDTH 878 0
DWIDTH 10 0
BBX 10 20 0 -5
BITMAP
0000
0000
0780
0c00
0c00
0c00
0c00
0c00
7800
0c00
0c00
0c00
0c00
0c00
0780
0000
0000
0000
0000
0000
ENDCHAR
STARTCHAR space
ENCODING 16
SWIDTH 878 0
DWIDTH 10 0
BBX 10 20 0 -5
BITMAP
0000
0000
0000
0000
0000
0000
0000
0000
0000
0000
0000
0000
0000
0000
0000
0000
0000
0000
0000
0000
ENDCHAR
STARTCHAR equal
ENCODING 17
SWIDTH 878 0
DWIDTH 10 0
BBX 10 20 0 -5
BITMAP
0000
0000
0000
0000
0000
0000
7f80
0000
0000
0000
0000
7f80
0000
0000
0000
0000
0000
0000
0000
0000
ENDCHAR
STARTCHAR apostrophe
ENCODING 18
SWIDTH 878 0
DWIDTH 10 0
BBX 10 20 0 -5
BITMAP
0000
0000
0f00
0e00
1800
0000
0000
0000
0000
0000
0000
0000
0000
0000
0000
0000
0000
0000
0000
0000
ENDCHAR
STARTCHAR quotedbl
ENCODING 19
SWIDTH 878 0
DWIDTH 10 0
BBX 10 20 0 -5
BITMAP
0000
0000
3300
3300
3300
1200
0000
0000
0000
0000
0000
0000
0000
0000
0000
0000
0000
0000
0000
0000
ENDCHAR
STARTCHAR slash
ENCODING 20
SWIDTH 878 0
DWIDTH 10 0
BBX 10 20 0 -5
BITMAP
0000
0000
0000
0180
0180
0300
0300
0600
0600
0c00
0c00
1800
1800
3000
3000
0000
0000
0000
0000
0000
ENDCHAR
STARTCHAR backslash
ENCODING 21
SWIDTH 878 0
DWIDTH 10 0
BBX 10 20 0 -5
BITMAP
0000
0000
0000
3000
3000
1800
1800
0c00
0c00
0600
0600
0300
0300
0180
0180
0000
0000
0000
0000
0000
ENDCHAR
STARTCHAR bar
ENCODING 22
SWIDTH 878 0
DWIDTH 10 0
BBX 10 20 0 -5
BITMAP
0000
0000
0c00
0c00
0c00
0c00
0c00
0c00
0c00
0c00
0c00
0c00
0c00
0c00
0c00
0000
0000
0000
0000
0000
ENDCHAR
STARTCHAR brokenbar
ENCODING 23
SWIDTH 878 0
DWIDTH 10 0
BBX 10 20 0 -5
BITMAP
0000
0000
0c00
0c00
0c00
0c00
0c00
0000
0000
0000
0c00
0c00
0c00
0c00
0c00
0000
0000
0000
0000
0000
ENDCHAR
STARTCHAR question
ENCODING 24
SWIDTH 878 0
DWIDTH 10 0
BBX 10 20 0 -5
BITMAP
0000
0000
1e00
3300
6180
6180
6180
0300
0600
0c00
0c00
0c00
0000
0c00
0c00
0000
0000
0000
0000
0000
ENDCHAR
STARTCHAR exclam
ENCODING 25
SWIDTH 878 0
DWIDTH 10 0
BBX 10 20 0 -5
BITMAP
0000
0000
0c00
0c00
0c00
0c00
0c00
0c00
0c00
0c00
0c00
0c00
0000
0c00
0c00
0000
0000
0000
0000
0000
ENDCHAR
STARTCHAR dollar
ENCODING 26
SWIDTH 878 0
DWIDTH 10 0
BBX 10 20 0 -5
BITMAP
0000
0000
0c00
3f00
6d80
6c00
6c00
6c00
3f00
0d80
0d80
0d80
6d80
3f00
0c00
0000
0000
0000
0000
0000
ENDCHAR
STARTCHAR modifier_letter_apostrophe
ENCODING 27
SWIDTH 878 0
DWIDTH 10 0
BBX 10 20 0 -5
BITMAP
0000
0000
0e00
0e00
1800
0000
0000
0000
0000
0000
0000
0000
0000
0000
0000
0000
0000
0000
0000
0000
ENDCHAR
STARTCHAR sterling
ENCODING 28
SWIDTH 878 0
DWIDTH 10 0
BBX 10 20 0 -5
BITMAP
0000
0000
0000
0f00
1980
1980
1800
1800
7e00
1800
1800
1800
7c00
56c0
7380
0000
0000
0000
0000
0000
ENDCHAR
STARTCHAR undefined_a5
ENCODING 29
SWIDTH 878 0
DWIDTH 10 0
BBX 10 20 0 -5
BITMAP
0000
0000
0000
0000
0000
0000
0000
0000
0000
0000
0000
0000
0000
0000
0000
0000
0000
0000
0000
0000
ENDCHAR
STARTCHAR greek_capital_letter_alpha_with_tonos
ENCODING 30
SWIDTH 878 0
DWIDTH 10 0
BBX 10 15 0 0
BITMAP
6000
6000
4000
4c00
0c00
0e00
1e00
1300
3300
3180
3f80
6180
60c0
40c0
f1c0
ENDCHAR
STARTCHAR undefined_a4
ENCODING 31
SWIDTH 878 0
DWIDTH 10 0
BBX 10 20 0 -5
BITMAP
0000
0000
0000
0000
0000
0000
0000
0000
0000
0000
0000
0000
0000
0000
0000
0000
0000
0000
0000
0000
ENDCHAR
STARTCHAR 0
ENCODING 32
SWIDTH 878 0
DWIDTH 10 0
BBX 10 20 0 -5
BITMAP
0000
0000
0c00
1e00
3300
3300
6180
6180
6180
6180
6180
3300
3300
1e00
0c00
0000
0000
0000
0000
0000
ENDCHAR
STARTCHAR 1
ENCODING 33
SWIDTH 878 0
DWIDTH 10 0
BBX 10 20 0 -5
BITMAP
0000
0000
0c00
1c00
3c00
6c00
0c00
0c00
0c00
0c00
0c00
0c00
0c00
0c00
7f80
0000
0000
0000
0000
0000
ENDCHAR
STARTCHAR 2
ENCODING 34
SWIDTH 878 0
DWIDTH 10 0
BBX 10 20 0 -5
BITMAP
0000
0000
1e00
3300
6180
6180
0180
0180
0300
0e00
1800
3000
6000
6000
7f80
0000
0000
0000
0000
0000
ENDCHAR
STARTCHAR 3
ENCODING 35
SWIDTH 878 0
DWIDTH 10 0
BBX 10 20 0 -5
BITMAP
0000
0000
1e00
3300
6180
6180
0180
0300
0e00
0300
0180
6180
6180
3300
1e00
0000
0000
0000
0000
0000
ENDCHAR
STARTCHAR 4
ENCODING 36
SWIDTH 878 0
DWIDTH 10 0
BBX 10 20 0 -5
BITMAP
0000
0000
0100
0300
0700
0f00
1b00
3300
6300
6300
7f80
0300
0300
0300
0300
0000
0000
0000
0000
0000
ENDCHAR
STARTCHAR 5
ENCODING 37
SWIDTH 878 0
DWIDTH 10 0
BBX 10 20 0 -5
BITMAP
0000
0000
7f80
6000
6000
6000
6000
6e00
7300
0180
0180
0180
6180
3300
1e00
0000
0000
0000
0000
0000
ENDCHAR
STARTCHAR 6
ENCODING 38
SWIDTH 878 0
DWIDTH 10 0
BBX 10 20 0 -5
BITMAP
0000
0000
1e00
3300
6100
6000
6000
6e00
7300
6180
6180
6180
6180
3300
1e00
0000
0000
0000
0000
0000
ENDCHAR
STARTCHAR 7
ENCODING 39
SWIDTH 878 0
DWIDTH 10 0
BBX 10 20 0 -5
BITMAP
0000
0000
7f80
0180
0180
0300
0300
0600
0600
0c00
0c00
1800
1800
3000
3000
0000
0000
0000
0000
0000
ENDCHAR
STARTCHAR 8
ENCODING 40
SWIDTH 878 0
DWIDTH 10 0
BBX 10 20 0 -5
BITMAP
0000
0000
1e00
3300
6180
6180
6180
3300
1e00
3300
6180
6180
6180
3300
1e00
0000
0000
0000
0000
0000
ENDCHAR
STARTCHAR 9
ENCODING 41
SWIDTH 878 0
DWIDTH 10 0
BBX 10 20 0 -5
BITMAP
0000
0000
1e00
3300
6180
6180
6180
6180
3380
1d80
0180
0180
2180
3300
1e00
0000
0000
0000
0000
0000
ENDCHAR
STARTCHAR greek_small_letter_iota_with_tonos
ENCODING 42
SWIDTH 878 0
DWIDTH 10 0
BBX 8 14 2 0
BITMAP
18
18
10
10
00
00
70
98
18
18
18
18
19
0e
ENDCHAR
STARTCHAR section
ENCODING 43
SWIDTH 878 0
DWIDTH 10 0
BBX 10 20 0 -5
BITMAP
0000
0000
3e00
6300
6000
7000
7800
4c00
6600
3300
1900
0f00
0300
6300
3e00
0000
0000
0000
0000
0000
ENDCHAR
STARTCHAR numbersign
ENCODING 44
SWIDTH 878 0
DWIDTH 10 0
BBX 10 20 0 -5
BITMAP
0000
0000
0000
0d80
0d80
0d80
3fc0
1b00
1b00
1b00
7f80
3600
3600
3600
0000
0000
0000
0000
0000
0000
ENDCHAR
STARTCHAR at
ENCODING 45
SWIDTH 878 0
DWIDTH 10 0
BBX 10 20 0 -5
BITMAP
0000
0000
1e00
3300
6180
6780
6f80
6d80
6d80
6d80
6f00
6600
6000
3180
1f00
0000
0000
0000
0000
0000
ENDCHAR
STARTCHAR percent
ENCODING 46
SWIDTH 878 0
DWIDTH 10 0
BBX 10 20 0 -5
BITMAP
0000
0000
0000
3980
6d80
6f00
3b00
0600
0600
0c00
0c00
1b80
1ec0
36c0
3380
0000
0000
0000
0000
0000
ENDCHAR
STARTCHAR underscore
ENCODING 47
SWIDTH 878 0
DWIDTH 10 0
BBX 10 20 0 -5
BITMAP
0000
0000
0000
0000
0000
0000
0000
0000
0000
0000
0000
0000
0000
0000
0000
7fc0
0000
0000
0000
0000
ENDCHAR
STARTCHAR ampersand
ENCODING 48
SWIDTH 878 0
DWIDTH 10 0
BBX 10 20 0 -5
BITMAP
0000
0000
1c00
3600
3600
3600
3c00
1800
3800
6c00
66c0
6380
6300
7780
3cc0
0000
0000
0000
0000
0000
ENDCHAR
STARTCHAR minus
ENCODING 49
SWIDTH 878 0
DWIDTH 10 0
BBX 10 20 0 -5
BITMAP
0000
0000
0000
0000
0000
0000
0000
0000
7f80
0000
0000
0000
0000
0000
0000
0000
0000
0000
0000
0000
ENDCHAR
STARTCHAR period
ENCODING 50
SWIDTH 878 0
DWIDTH 10 0
BBX 10 20 0 -5
BITMAP
0000
0000
0000
0000
0000
0000
0000
0000
0000
0000
0000
0000
0e00
0e00
0e00
0000
0000
0000
0000
0000
ENDCHAR
STARTCHAR comma
ENCODING 51
SWIDTH 878 0
DWIDTH 10 0
BBX 10 20 0 -5
BITMAP
0000
0000
0000
0000
0000
0000
0000
0000
0000
0000
0000
0000
0000
0e00
0e00
1800
0000
0000
0000
0000
ENDCHAR
STARTCHAR colon
ENCODING 52
SWIDTH 878 0
DWIDTH 10 0
BBX 10 20 0 -5
BITMAP
0000
0000
0000
0000
0000
0e00
0e00
0000
0000
0000
0000
0e00
0e00
0000
0000
0000
0000
0000
0000
0000
ENDCHAR
STARTCHAR plus
ENCODING 53
SWIDTH 878 0
DWIDTH 10 0
BBX 10 20 0 -5
BITMAP
0000
0000
0000
0000
0000
0c00
0c00
0c00
7f80
0c00
0c00
0c00
0000
0000
0000
0000
0000
0000
0000
0000
ENDCHAR
STARTCHAR notsign
ENCODING 54
SWIDTH 878 0
DWIDTH 10 0
BBX 10 20 0 -5
BITMAP
0000
0000
0000
0000
0000
0000
0000
7f80
7f80
0180
0180
0000
0000
0000
0000
0000
0000
0000
0000
0000
ENDCHAR
STARTCHAR macron
ENCODING 55
SWIDTH 878 0
DWIDTH 10 0
BBX 10 20 0 -5
BITMAP
0000
0000
0000
7f00
7f00
0000
0000
0000
0000
0000
0000
0000
0000
0000
0000
0000
0000
0000
0000
0000
ENDCHAR
STARTCHAR degree
ENCODING 56
SWIDTH 878 0
DWIDTH 10 0
BBX 10 20 0 -5
BITMAP
0000
0000
0c00
1e00
3300
3300
1e00
0c00
0000
0000
0000
0000
0000
0000
0000
0000
0000
0000
0000
0000
ENDCHAR
STARTCHAR periodcentered
ENCODING 57
SWIDTH 878 0
DWIDTH 10 0
BBX 10 20 0 -5
BITMAP
0000
0000
0000
0000
0000
0000
0000
0e00
0e00
0e00
0000
0000
0000
0000
0000
0000
0000
0000
0000
0000
ENDCHAR
STARTCHAR asciicircum
ENCODING 58
SWIDTH 878 0
DWIDTH 10 0
BBX 10 20 0 -5
BITMAP
0000
0000
0c00
1e00
3300
6180
0000
0000
0000
0000
0000
0000
0000
0000
0000
0000
0000
0000
0000
0000
ENDCHAR
STARTCHAR asciitilde
ENCODING 59
SWIDTH 878 0
DWIDTH 10 0
BBX 10 20 0 -5
BITMAP
0000
0000
3980
6d80
6700
0000
0000
0000
0000
0000
0000
0000
0000
0000
0000
0000
0000
0000
0000
0000
ENDCHAR
STARTCHAR diaeresis
ENCODING 60
SWIDTH 878 0
DWIDTH 10 0
BBX 10 20 0 -5
BITMAP
0000
0000
3300
3300
0000
0000
0000
0000
0000
0000
0000
0000
0000
0000
0000
0000
0000
0000
0000
0000
ENDCHAR
STARTCHAR grave
ENCODING 61
SWIDTH 878 0
DWIDTH 10 0
BBX 10 20 0 -5
BITMAP
0000
0000
3c00
1c00
0600
0000
0000
0000
0000
0000
0000
0000
0000
0000
0000
0000
0000
0000
0000
0000
ENDCHAR
STARTCHAR acute
ENCODING 62
SWIDTH 878 0
DWIDTH 10 0
BBX 10 20 0 -5
BITMAP
0000
0000
0600
0c00
1800
0000
0000
0000
0000
0000
0000
0000
0000
0000
0000
0000
0000
0000
0000
0000
ENDCHAR
STARTCHAR greek_capital_letter_epsilon_with_tonos
ENCODING 63
SWIDTH 878 0
DWIDTH 10 0
BBX 10 15 1 0
BITMAP
c000
c000
8000
bfc0
1840
1840
1800
1880
1f80
1880
1800
1800
1840
1840
3fc0
ENDCHAR
STARTCHAR greek_small_letter_upsilon_with_dialytika_and_tonos
ENCODING 64
SWIDTH 878 0
DWIDTH 10 0
BBX 9 15 1 0
BITMAP
0c00
0c00
0800
6b00
6300
0000
0000
6300
b180
3180
3180
3180
3180
3300
1e00
ENDCHAR
STARTCHAR greek_small_letter_theta
ENCODING 65
SWIDTH 878 0
DWIDTH 10 0
BBX 8 12 2 0
BITMAP
3c
66
66
c3
c3
ff
c3
c3
c3
66
66
3c
ENDCHAR
STARTCHAR greek_small_letter_mu
ENCODING 66
SWIDTH 878 0
DWIDTH 10 0
BBX 9 11 1 -3
BITMAP
4200
c600
c600
c600
c600
c600
ee80
bb00
8000
8000
8000
ENDCHAR
STARTCHAR greek_small_letter_final_sigma
ENCODING 67
SWIDTH 878 0
DWIDTH 10 0
BBX 7 11 2 -3
BITMAP
3c
7e
c2
80
80
80
fc
7e
02
02
1c
ENDCHAR
STARTCHAR greek_small_letter_omega
ENCODING 68
SWIDTH 878 0
DWIDTH 10 0
BBX 10 8 1 0
BITMAP
6100
c080
80c0
8cc0
8cc0
ccc0
ffc0
7380
ENDCHAR
STARTCHAR greek_small_letter_gamma
ENCODING 69
SWIDTH 878 0
DWIDTH 10 0
BBX 10 11 1 -3
BITMAP
3040
7880
4d80
8500
8700
0600
0600
0c00
1c00
1c00
0800
ENDCHAR
STARTCHAR greek_small_letter_upsilon
ENCODING 70
SWIDTH 878 0
DWIDTH 10 0
BBX 9 8 1 0
BITMAP
6300
b180
3180
3180
3180
3180
3300
1e00
ENDCHAR
STARTCHAR undefined_ff
ENCODING 71
SWIDTH 878 0
DWIDTH 10 0
BBX 10 20 0 -5
BITMAP
0000
0000
0000
0000
0000
0000
0000
0000
0000
0000
0000
0000
0000
0000
0000
0000
0000
0000
0000
0000
ENDCHAR
STARTCHAR greek_small_letter_epsilon_with_tonos
ENCODING 72
SWIDTH 878 0
DWIDTH 10 0
BBX 7 14 2 0
BITMAP
18
18
10
10
00
00
7c
c6
c0
78
c0
c0
e2
3c
ENDCHAR
STARTCHAR greek_small_letter_upsilon_with_tonos
ENCODING 73
SWIDTH 878 0
DWIDTH 10 0
BBX 9 13 1 0
BITMAP
0c00
0c00
0800
0800
0000
6300
b180
3180
3180
3180
3180
3300
1e00
ENDCHAR
STARTCHAR greek_small_letter_iota
ENCODING 74
SWIDTH 878 0
DWIDTH 10 0
BBX 8 8 2 0
BITMAP
70
98
18
18
18
18
19
0e
ENDCHAR
STARTCHAR greek_capital_letter_omicron_with_tonos
ENCODING 75
SWIDTH 878 0
DWIDTH 10 0
BBX 10 15 1 0
BITMAP
c000
c000
8000
9e00
7380
6180
c0c0
c0c0
c0c0
c0c0
c0c0
c0c0
6180
7380
1e00
ENDCHAR
STARTCHAR onehalf
ENCODING 76
SWIDTH 878 0
DWIDTH 10 0
BBX 10 20 0 -5
BITMAP
0000
0000
2000
6000
2080
2100
7200
0400
0b00
1480
2080
4100
0200
0780
0000
0000
0000
0000
0000
0000
ENDCHAR
STARTCHAR greek_capital_letter_upsilon_with_tonos
ENCODING 77
SWIDTH 878 0
DWIDTH 10 0
BBX 10 15 1 0
BITMAP
6000
c000
8000
6180
f3c0
9240
1e00
0c00
0c00
0c00
0c00
0c00
0c00
0c00
3f00
ENDCHAR
STARTCHAR greek_small_letter_omicron_with_tonos
ENCODING 78
SWIDTH 878 0
DWIDTH 10 0
BBX 8 13 2 0
BITMAP
0c
0c
08
08
00
3c
66
c3
c3
c3
c3
66
3c
ENDCHAR
STARTCHAR greek_small_letter_eta
ENCODING 79
SWIDTH 878 0
DWIDTH 10 0
BBX 9 11 1 -3
BITMAP
6e00
bb00
b180
3180
3180
3180
3180
3180
1180
0180
0080
ENDCHAR
STARTCHAR greek_small_letter_delta
ENCODING 80
SWIDTH 878 0
DWIDTH 10 0
BBX 8 12 2 0
BITMAP
1c
36
32
18
3c
66
c3
c3
c3
c3
66
3c
ENDCHAR
STARTCHAR greek_small_letter_lamda
ENCODING 81
SWIDTH 878 0
DWIDTH 10 0
BBX 10 12 1 0
BITMAP
6000
b000
3000
1800
1800
1c00
3c00
2600
6600
4300
c340
8180
ENDCHAR
STARTCHAR greek_small_letter_xi
ENCODING 82
SWIDTH 878 0
DWIDTH 10 0
BBX 8 8 2 0
BITMAP
3c
66
c3
c3
c3
c3
66
3c
ENDCHAR
STARTCHAR greek_small_letter_phi
ENCODING 83
SWIDTH 878 0
DWIDTH 10 0
BBX 9 15 1 -3
BITMAP
0800
0800
0800
0800
3e00
6b00
c980
c980
c980
c980
6b00
3e00
0800
0800
0800
ENDCHAR
STARTCHAR greek_dialytika_tonos
ENCODING 84
SWIDTH 878 0
DWIDTH 10 0
BBX 8 15 2 0
BITMAP
0c
0c
08
6b
63
00
00
00
00
00
00
00
00
00
00
ENDCHAR
STARTCHAR greek_small_letter_alpha
ENCODING 85
SWIDTH 878 0
DWIDTH 10 0
BBX 8 15 2 -3
BITMAP
3c
6e
c6
c6
cc
dc
c6
c3
c3
c3
e6
dc
c0
c0
80
ENDCHAR
STARTCHAR greek_small_letter_kappa
ENCODING 86
SWIDTH 878 0
DWIDTH 10 0
BBX 9 8 1 0
BITMAP
6300
e700
6c00
7800
6c00
6600
6300
f180
ENDCHAR
STARTCHAR greek_small_letter_xi
ENCODING 87
SWIDTH 878 0
DWIDTH 10 0
BBX 7 16 2 -3
BITMAP
30
20
1e
30
30
1e
30
60
c0
c0
c0
70
1c
02
12
1c
ENDCHAR
STARTCHAR greek_small_letter_tau
ENCODING 88
SWIDTH 878 0
DWIDTH 10 0
BBX 9 8 1 0
BITMAP
3f80
7f00
8800
0800
0800
0880
0f00
0600
ENDCHAR
STARTCHAR greek_small_letter_upsilon_with_dialytika
ENCODING 89
SWIDTH 878 0
DWIDTH 10 0
BBX 9 12 1 0
BITMAP
3300
3300
0000
0000
6300
b180
3180
3180
3180
3180
3300
1e00
ENDCHAR
STARTCHAR greek_small_letter_alpha
ENCODING 90
SWIDTH 878 0
DWIDTH 10 0
BBX 10 8 1 0
BITMAP
3880
6d80
c500
c700
c600
c600
6f40
3980
ENDCHAR
STARTCHAR greek_capital_letter_chi
ENCODING 91
SWIDTH 878 0
DWIDTH 10 0
BBX 10 12 1 0
BITMAP
f3c0
6180
3300
1200
1e00
0c00
1e00
1600
3300
2300
6180
f3c0
ENDCHAR
STARTCHAR greek_small_letter_nu
ENCODING 92
SWIDTH 878 0
DWIDTH 10 0
BBX 9 8 1 0
BITMAP
e180
6180
3100
3100
1a00
1a00
0c00
0c00
ENDCHAR
STARTCHAR greek_small_letter_sigma
ENCODING 93
SWIDTH 878 0
DWIDTH 10 0
BBX 9 8 2 0
BITMAP
3f80
6600
c300
c300
c300
c300
6600
3c00
ENDCHAR
STARTCHAR greek_small_letter_iota_with_dialytika
ENCODING 94
SWIDTH 878 0
DWIDTH 10 0
BBX 8 12 1 0
BITMAP
66
66
00
00
70
98
18
18
18
18
19
0e
ENDCHAR
STARTCHAR greek_small_letter_rho
ENCODING 95
SWIDTH 878 0
DWIDTH 10 0
BBX 8 11 2 -3
BITMAP
3c
66
c3
c3
c3
c3
e6
dc
c0
c0
c0
ENDCHAR
STARTCHAR greek_small_letter_iota_with_dialytika_and_tonos
ENCODING 96
SWIDTH 878 0
DWIDTH 10 0
BBX 8 15 2 0
BITMAP
0c
0c
08
6b
63
00
00
70
98
18
18
18
18
19
0e
ENDCHAR
STARTCHAR greek_capital_letter_theta
ENCODING 97
SWIDTH 878 0
DWIDTH 10 0
BBX 10 12 1 0
BITMAP
1e00
7380
6180
c0c0
d2c0
dec0
dec0
d2c0
c0c0
6180
7380
1e00
ENDCHAR
STARTCHAR greek_capital_letter_mu
ENCODING 98
SWIDTH 878 0
DWIDTH 10 0
BBX 11 12 0 0
BITMAP
e0e0
60c0
71c0
71c0
71c0
5bc0
5ac0
5ec0
4cc0
4cc0
4cc0
e1e0
ENDCHAR
STARTCHAR undefined_d2
ENCODING 99
SWIDTH 878 0
DWIDTH 10 0
BBX 8 12 2 0
BITMAP
00
00
00
00
00
00
00
00
00
00
00
00
ENDCHAR
STARTCHAR greek_capital_letter_omega
ENCODING 100
SWIDTH 878 0
DWIDTH 10 0
BBX 10 12 1 0
BITMAP
1e00
7380
6180
c0c0
c0c0
c0c0
c0c0
6180
3300
9240
f3c0
7380
ENDCHAR
STARTCHAR greek_capital_letter_gamma
ENCODING 101
SWIDTH 878 0
DWIDTH 10 0
BBX 8 12 2 0
BITMAP
ff
61
61
60
60
60
60
60
60
60
60
f8
ENDCHAR
STARTCHAR greek_capital_letter_upsilon
ENCODING 102
SWIDTH 878 0
DWIDTH 10 0
BBX 10 12 1 0
BITMAP
6180
f3c0
9240
1e00
0c00
0c00
0c00
0c00
0c00
0c00
0c00
3f00
ENDCHAR
STARTCHAR greek_capital_letter_eta_with_tonos
ENCODING 103
SWIDTH 878 0
DWIDTH 10 0
BBX 10 15 1 0
BITMAP
c000
c000
8000
f3c0
6180
6180
6180
6180
7f80
6180
6180
6180
6180
6180
f3c0
ENDCHAR
STARTCHAR twosuperior
ENCODING 104
SWIDTH 878 0
DWIDTH 10 0
BBX 10 20 0 -5
BITMAP
0000
0000
1c00
3600
0600
0c00
1800
3000
3e00
0000
0000
0000
0000
0000
0000
0000
0000
0000
0000
0000
ENDCHAR
STARTCHAR threesuperior
ENCODING 105
SWIDTH 878 0
DWIDTH 10 0
BBX 10 20 0 -5
BITMAP
0000
0000
1c00
3600
0200
0e00
0200
3600
1c00
0000
0000
0000
0000
0000
0000
0000
0000
0000
0000
0000
ENDCHAR
STARTCHAR undefined_aa
ENCODING 106
SWIDTH 878 0
DWIDTH 10 0
BBX 10 20 0 -5
BITMAP
0000
0000
0000
0000
0000
0000
0000
0000
0000
0000
0000
0000
0000
0000
0000
0000
0000
0000
0000
0000
ENDCHAR
STARTCHAR greek_capital_letter_iota_with_tonos
ENCODING 107
SWIDTH 878 0
DWIDTH 10 0
BBX 8 15 1 0
BITMAP
c0
c0
80
bf
0c
0c
0c
0c
0c
0c
0c
0c
0c
0c
3f
ENDCHAR
STARTCHAR guillemotleft
ENCODING 108
SWIDTH 878 0
DWIDTH 10 0
BBX 10 20 0 -5
BITMAP
0000
0000
0000
0000
0480
0d80
1b00
3600
6c00
d800
6c00
3600
1b00
0d80
0480
0000
0000
0000
0000
0000
ENDCHAR
STARTCHAR guillemotright
ENCODING 109
SWIDTH 878 0
DWIDTH 10 0
BBX 10 20 0 -5
BITMAP
0000
0000
0000
0000
4800
6c00
3600
1b00
0d80
06c0
0d80
1b00
3600
6c00
4800
0000
0000
0000
0000
0000
ENDCHAR
STARTCHAR modifier_letter_reversed_comma
ENCODING 110
SWIDTH 878 0
DWIDTH 10 0
BBX 10 20 0 -5
BITMAP
0000
0000
1c00
1c00
0600
0000
0000
0000
0000
0000
0000
0000
0000
0000
0000
0000
0000
0000
0000
0000
ENDCHAR
STARTCHAR greek_capital_letter_omega_with_tonos
ENCODING 111
SWIDTH 878 0
DWIDTH 10 0
BBX 10 15 1 0
BITMAP
c000
c000
8000
9e00
7380
6180
c0c0
c0c0
c0c0
c0c0
6180
3300
9240
f3c0
7380
ENDCHAR
STARTCHAR greek_capital_letter_delta
ENCODING 112
SWIDTH 878 0
DWIDTH 10 0
BBX 9 12 1 0
BITMAP
1800
1800
1c00
3c00
2c00
2600
6600
4600
4300
c300
ff80
ff80
ENDCHAR
STARTCHAR greek_capital_letter_lamda
ENCODING 113
SWIDTH 878 0
DWIDTH 10 0
BBX 11 12 0 0
BITMAP
0c00
0c00
0e00
1e00
1300
3300
2180
2180
6180
40c0
40c0
f1e0
ENDCHAR
STARTCHAR greek_capital_letter_omicron
ENCODING 114
SWIDTH 878 0
DWIDTH 10 0
BBX 10 12 1 0
BITMAP
1e00
7380
6180
c0c0
c0c0
c0c0
c0c0
c0c0
c0c0
6180
7380
1e00
ENDCHAR
STARTCHAR greek_capital_letter_upsilon
ENCODING 115
SWIDTH 878 0
DWIDTH 10 0
BBX 10 12 1 0
BITMAP
1e00
0c00
3f00
6d80
ccc0
ccc0
ccc0
ccc0
6d80
3f00
0c00
1e00
ENDCHAR
STARTCHAR greek_small_letter_alpha_with_tonos
ENCODING 116
SWIDTH 878 0
DWIDTH 10 0
BBX 10 14 1 0
BITMAP
0c00
0c00
0800
0800
0000
0000
3880
6d80
c500
c700
c600
c600
6f40
3980
ENDCHAR
STARTCHAR greek_capital_letter_beta
ENCODING 117
SWIDTH 878 0
DWIDTH 10 0
BBX 9 12 1 0
BITMAP
fe00
6700
6300
6300
6600
7e00
6300
6180
6180
6180
6300
fe00
ENDCHAR
STARTCHAR greek_capital_letter_kappa
ENCODING 118
SWIDTH 878 0
DWIDTH 10 0
BBX 10 12 1 0
BITMAP
f3c0
6180
6300
6600
6c00
7c00
7600
6600
6300
6300
6180
f3c0
ENDCHAR
STARTCHAR greek_capital_letter_xi
ENCODING 119
SWIDTH 878 0
DWIDTH 10 0
BBX 10 14 1 -1
BITMAP
4080
7f80
7f80
4080
0000
1100
1f00
1f00
1100
0000
8040
ffc0
ffc0
8040
ENDCHAR
STARTCHAR greek_capital_letter_tau
ENCODING 120
SWIDTH 878 0
DWIDTH 10 0
BBX 10 12 1 0
BITMAP
ffc0
8c40
8c40
0c00
0c00
0c00
0c00
0c00
0c00
0c00
0c00
3f00
ENDCHAR
STARTCHAR greek_capital_letter_upsilon_with_dialytika
ENCODING 121
SWIDTH 878 0
DWIDTH 10 0
BBX 10 15 1 0
BITMAP
3300
3300
0000
6180
f3c0
9240
1e00
0c00
0c00
0c00
0c00
0c00
0c00
0c00
3f00
ENDCHAR
STARTCHAR greek_capital_letter_alpha
ENCODING 122
SWIDTH 878 0
DWIDTH 10 0
BBX 11 12 0 0
BITMAP
0c00
0c00
0e00
1e00
1300
3300
3180
3f80
6180
60c0
40c0
f1e0
ENDCHAR
STARTCHAR greek_capital_letter_iota
ENCODING 123
SWIDTH 878 0
DWIDTH 10 0
BBX 6 12 3 0
BITMAP
fc
30
30
30
30
30
30
30
30
30
30
fc
ENDCHAR
STARTCHAR greek_capital_letter_nu
ENCODING 124
SWIDTH 878 0
DWIDTH 10 0
BBX 10 12 1 0
BITMAP
e3c0
6180
7180
7180
6980
6980
6580
6580
6380
6380
6180
f180
ENDCHAR
STARTCHAR greek_capital_letter_sigma
ENCODING 125
SWIDTH 878 0
DWIDTH 10 0
BBX 8 12 2 0
BITMAP
ff
c1
e1
60
70
38
30
60
40
c1
81
ff
ENDCHAR
STARTCHAR greek_capital_letter_iota_with_dialytika
ENCODING 126
SWIDTH 878 0
DWIDTH 10 0
BBX 8 15 1 0
BITMAP
33
33
00
3f
0c
0c
0c
0c
0c
0c
0c
0c
0c
0c
3f
ENDCHAR
STARTCHAR greek_capital_letter_rho
ENCODING 127
SWIDTH 878 0
DWIDTH 10 0
BBX 9 12 1 0
BITMAP
fe00
6300
6180
6180
6180
6300
7e00
6000
6000
6000
6000
f800
ENDCHAR
STARTCHAR a
ENCODING 128
SWIDTH 878 0
DWIDTH 10 0
BBX 10 20 0 -5
BITMAP
0000
0000
0000
0000
0000
0000
0000
1f00
3180
0180
3f80
6180
6180
6180
3e80
0000
0000
0000
0000
0000
ENDCHAR
STARTCHAR b
ENCODING 129
SWIDTH 878 0
DWIDTH 10 0
BBX 10 20 0 -5
BITMAP
0000
0000
6000
6000
6000
6000
6000
6e00
7300
6180
6180
6180
6180
7300
6e00
0000
0000
0000
0000
0000
ENDCHAR
STARTCHAR c
ENCODING 130
SWIDTH 878 0
DWIDTH 10 0
BBX 10 20 0 -5
BITMAP
0000
0000
0000
0000
0000
0000
0000
1f00
3180
6000
6000
6000
6000
3180
1f00
0000
0000
0000
0000
0000
ENDCHAR
STARTCHAR d
ENCODING 131
SWIDTH 878 0
DWIDTH 10 0
BBX 10 20 0 -5
BITMAP
0000
0000
0180
0180
0180
0180
0180
1d80
3380
6180
6180
6180
6180
3380
1d80
0000
0000
0000
0000
0000
ENDCHAR
STARTCHAR e
ENCODING 132
SWIDTH 878 0
DWIDTH 10 0
BBX 10 20 0 -5
BITMAP
0000
0000
0000
0000
0000
0000
0000
1e00
3300
6180
7f80
6000
6000
3180
1f00
0000
0000
0000
0000
0000
ENDCHAR
STARTCHAR f
ENCODING 133
SWIDTH 878 0
DWIDTH 10 0
BBX 10 20 0 -5
BITMAP
0000
0000
0f00
1980
1980
1800
1800
1800
1800
7e00
1800
1800
1800
1800
1800
0000
0000
0000
0000
0000
ENDCHAR
STARTCHAR g
ENCODING 134
SWIDTH 878 0
DWIDTH 10 0
BBX 10 20 0 -5
BITMAP
0000
0000
0000
0000
0000
0000
0000
3e80
6380
6300
6300
6300
3e00
6000
3f00
6180
6180
6180
3f00
0000
ENDCHAR
STARTCHAR h
ENCODING 135
SWIDTH 878 0
DWIDTH 10 0
BBX 10 20 0 -5
BITMAP
0000
0000
6000
6000
6000
6000
6000
6e00
7300
6180
6180
6180
6180
6180
6180
0000
0000
0000
0000
0000
ENDCHAR
STARTCHAR i
ENCODING 136
SWIDTH 878 0
DWIDTH 10 0
BBX 10 20 0 -5
BITMAP
0000
0000
0000
0000
0c00
0c00
0000
3c00
0c00
0c00
0c00
0c00
0c00
0c00
7f80
0000
0000
0000
0000
0000
ENDCHAR
STARTCHAR j
ENCODING 137
SWIDTH 878 0
DWIDTH 10 0
BBX 10 20 0 -5
BITMAP
0000
0000
0000
0000
0180
0180
0000
0780
0180
0180
0180
0180
0180
0180
0180
3180
3180
3180
1f00
0000
ENDCHAR
STARTCHAR k
ENCODING 138
SWIDTH 878 0
DWIDTH 10 0
BBX 10 20 0 -5
BITMAP
0000
0000
6000
6000
6000
6000
6000
6300
6600
6c00
7800
7c00
6600
6300
6180
0000
0000
0000
0000
0000
ENDCHAR
STARTCHAR l
ENCODING 139
SWIDTH 878 0
DWIDTH 10 0
BBX 10 20 0 -5
BITMAP
0000
0000
3c00
0c00
0c00
0c00
0c00
0c00
0c00
0c00
0c00
0c00
0c00
0c00
7f80
0000
0000
0000
0000
0000
ENDCHAR
STARTCHAR m
ENCODING 140
SWIDTH 878 0
DWIDTH 10 0
BBX 10 20 0 -5
BITMAP
0000
0000
0000
0000
0000
0000
0000
5b00
7f80
6d80
6d80
6d80
6d80
6d80
6d80
0000
0000
0000
0000
0000
ENDCHAR
STARTCHAR n
ENCODING 141
SWIDTH 878 0
DWIDTH 10 0
BBX 10 20 0 -5
BITMAP
0000
0000
0000
0000
0000
0000
0000
6e00
7300
6180
6180
6180
6180
6180
6180
0000
0000
0000
0000
0000
ENDCHAR
STARTCHAR o
ENCODING 142
SWIDTH 878 0
DWIDTH 10 0
BBX 10 20 0 -5
BITMAP
0000
0000
0000
0000
0000
0000
0000
1e00
3300
6180
6180
6180
6180
3300
1e00
0000
0000
0000
0000
0000
ENDCHAR
STARTCHAR p
ENCODING 143
SWIDTH 878 0
DWIDTH 10 0
BBX 10 20 0 -5
BITMAP
0000
0000
0000
0000
0000
0000
0000
6e00
7300
6180
6180
6180
6180
7300
6e00
6000
6000
6000
6000
0000
ENDCHAR
STARTCHAR q
ENCODING 144
SWIDTH 878 0
DWIDTH 10 0
BBX 10 20 0 -5
BITMAP
0000
0000
0000
0000
0000
0000
0000
1d80
3380
6180
6180
6180
6180
3380
1d80
0180
0180
0180
0180
0000
ENDCHAR
STARTCHAR r
ENCODING 145
SWIDTH 878 0
DWIDTH 10 0
BBX 10 20 0 -5
BITMAP
0000
0000
0000
0000
0000
0000
0000
6f00
3980
3000
3000
3000
3000
3000
3000
0000
0000
0000
0000
0000
ENDCHAR
STARTCHAR s
ENCODING 146
SWIDTH 878 0
DWIDTH 10 0
BBX 10 20 0 -5
BITMAP
0000
0000
0000
0000
0000
0000
0000
3f00
6180
6000
3f00
0180
0180
6180
3f00
0000
0000
0000
0000
0000
ENDCHAR
STARTCHAR t
ENCODING 147
SWIDTH 878 0
DWIDTH 10 0
BBX 10 20 0 -5
BITMAP
0000
0000
0000
0000
1800
1800
1800
7e00
1800
1800
1800
1800
1800
1980
0f00
0000
0000
0000
0000
0000
ENDCHAR
STARTCHAR u
ENCODING 148
SWIDTH 878 0
DWIDTH 10 0
BBX 10 20 0 -5
BITMAP
0000
0000
0000
0000
0000
0000
0000
6180
6180
6180
6180
6180
6180
3380
1d80
0000
0000
0000
0000
0000
ENDCHAR
STARTCHAR v
ENCODING 149
SWIDTH 878 0
DWIDTH 10 0
BBX 10 20 0 -5
BITMAP
0000
0000
0000
0000
0000
0000
0000
6180
6180
3300
3300
1e00
1e00
0c00
0c00
0000
0000
0000
0000
0000
ENDCHAR
STARTCHAR w
ENCODING 150
SWIDTH 878 0
DWIDTH 10 0
BBX 10 20 0 -5
BITMAP
0000
0000
0000
0000
0000
0000
0000
6180
6180
6180
6d80
6d80
6d80
7f80
3300
0000
0000
0000
0000
0000
ENDCHAR
STARTCHAR x
ENCODING 151
SWIDTH 878 0
DWIDTH 10 0
BBX 10 20 0 -5
BITMAP
0000
0000
0000
0000
0000
0000
0000
6180
3300
1e00
0c00
0c00
1e00
3300
6180
0000
0000
0000
0000
0000
ENDCHAR
STARTCHAR y
ENCODING 152
SWIDTH 878 0
DWIDTH 10 0
BBX 10 20 0 -5
BITMAP
0000
0000
0000
0000
0000
0000
0000
6180
6180
6180
6180
6180
6180
3380
1d80
0180
6180
3300
1e00
0000
ENDCHAR
STARTCHAR z
ENCODING 153
SWIDTH 878 0
DWIDTH 10 0
BBX 10 20 0 -5
BITMAP
0000
0000
0000
0000
0000
0000
0000
3f80
0180
0300
0600
0c00
1800
3000
3f80
0000
0000
0000
0000
0000
ENDCHAR
STARTCHAR greek_small_letter_zeta
ENCODING 154
SWIDTH 878 0
DWIDTH 10 0
BBX 8 16 0 -3
BITMAP
60
33
1f
3e
70
e0
c0
c0
c0
e0
70
38
0c
06
32
3c
ENDCHAR
STARTCHAR greek_small_letter_psi
ENCODING 155
SWIDTH 878 0
DWIDTH 10 0
BBX 11 15 0 -3
BITMAP
0400
0400
0400
0400
c460
64c0
64c0
64c0
64c0
3580
3580
1f00
0400
0400
0400
ENDCHAR
STARTCHAR greek_small_letter_epsilon
ENCODING 156
SWIDTH 878 0
DWIDTH 10 0
BBX 7 8 2 0
BITMAP
7c
c6
c0
78
c0
c0
e2
3c
ENDCHAR
STARTCHAR greek_small_letter_chi
ENCODING 157
SWIDTH 878 0
DWIDTH 10 0
BBX 10 11 1 -3
BITMAP
c040
a0c0
3180
1300
1e00
0c00
1e00
3200
6300
c140
80c0
ENDCHAR
STARTCHAR fm
ENCODING 158
SWIDTH 878 0
DWIDTH 10 0
BBX 10 20 0 -5
BITMAP
0000
0000
0000
0000
0000
0e00
0e00
0000
0000
0000
0000
0e00
0e00
1c00
0000
0000
0000
0000
0000
0000
ENDCHAR
STARTCHAR dup
ENCODING 159
SWIDTH 878 0
DWIDTH 10 0
BBX 10 20 0 -5
BITMAP
0000
0000
0000
0000
0000
3300
3300
1e00
7f80
1e00
3300
3300
0000
0000
0000
0000
0000
0000
0000
0000
ENDCHAR
STARTCHAR A
ENCODING 160
SWIDTH 878 0
DWIDTH 10 0
BBX 10 20 0 -5
BITMAP
0000
0000
0c00
1e00
3300
3300
6180
6180
6180
7f80
6180
6180
6180
6180
6180
0000
0000
0000
0000
0000
ENDCHAR
STARTCHAR B
ENCODING 161
SWIDTH 878 0
DWIDTH 10 0
BBX 10 20 0 -5
BITMAP
0000
0000
7c00
6600
6300
6300
6300
6600
7e00
6300
6180
6180
6180
6300
7e00
0000
0000
0000
0000
0000
ENDCHAR
STARTCHAR C
ENCODING 162
SWIDTH 878 0
DWIDTH 10 0
BBX 10 20 0 -5
BITMAP
0000
0000
1e00
3300
6180
6000
6000
6000
6000
6000
6000
6000
6180
3300
1e00
0000
0000
0000
0000
0000
ENDCHAR
STARTCHAR D
ENCODING 163
SWIDTH 878 0
DWIDTH 10 0
BBX 10 20 0 -5
BITMAP
0000
0000
7e00
6300
6180
6180
6180
6180
6180
6180
6180
6180
6180
6300
7e00
0000
0000
0000
0000
0000
ENDCHAR
STARTCHAR E
ENCODING 164
SWIDTH 878 0
DWIDTH 10 0
BBX 10 20 0 -5
BITMAP
0000
0000
7f80
6000
6000
6000
6000
6000
7e00
6000
6000
6000
6000
6000
7f80
0000
0000
0000
0000
0000
ENDCHAR
STARTCHAR F
ENCODING 165
SWIDTH 878 0
DWIDTH 10 0
BBX 10 20 0 -5
BITMAP
0000
0000
7f80
6000
6000
6000
6000
6000
7e00
6000
6000
6000
6000
6000
6000
0000
0000
0000
0000
0000
ENDCHAR
STARTCHAR G
ENCODING 166
SWIDTH 878 0
DWIDTH 10 0
BBX 10 20 0 -5
BITMAP
0000
0000
1e00
3300
6180
6000
6000
6000
6780
6180
6180
6180
6180
3380
1e80
0000
0000
0000
0000
0000
ENDCHAR
STARTCHAR H
ENCODING 167
SWIDTH 878 0
DWIDTH 10 0
BBX 10 20 0 -5
BITMAP
0000
0000
6180
6180
6180
6180
6180
6180
7f80
6180
6180
6180
6180
6180
6180
0000
0000
0000
0000
0000
ENDCHAR
STARTCHAR I
ENCODING 168
SWIDTH 878 0
DWIDTH 10 0
BBX 10 20 0 -5
BITMAP
0000
0000
7f80
0c00
0c00
0c00
0c00
0c00
0c00
0c00
0c00
0c00
0c00
0c00
7f80
0000
0000
0000
0000
0000
ENDCHAR
STARTCHAR J
ENCODING 169
SWIDTH 878 0
DWIDTH 10 0
BBX 10 20 0 -5
BITMAP
0000
0000
0f80
0180
0180
0180
0180
0180
0180
0180
0180
6180
6180
3300
1e00
0000
0000
0000
0000
0000
ENDCHAR
STARTCHAR K
ENCODING 170
SWIDTH 878 0
DWIDTH 10 0
BBX 10 20 0 -5
BITMAP
0000
0000
6180
6180
6300
6300
6600
6600
7c00
6600
6600
6300
6300
6180
6180
0000
0000
0000
0000
0000
ENDCHAR
STARTCHAR L
ENCODING 171
SWIDTH 878 0
DWIDTH 10 0
BBX 10 20 0 -5
BITMAP
0000
0000
6000
6000
6000
6000
6000
6000
6000
6000
6000
6000
6000
6000
7f80
0000
0000
0000
0000
0000
ENDCHAR
STARTCHAR M
ENCODING 172
SWIDTH 878 0
DWIDTH 10 0
BBX 10 20 0 -5
BITMAP
0000
0000
6180
6180
7380
7380
7f80
6d80
6d80
6d80
6d80
6180
6180
6180
6180
0000
0000
0000
0000
0000
ENDCHAR
STARTCHAR N
ENCODING 173
SWIDTH 878 0
DWIDTH 10 0
BBX 10 20 0 -5
BITMAP
0000
0000
6180
7180
7180
7980
7980
6d80
6d80
6780
6780
6380
6380
6180
6180
0000
0000
0000
0000
0000
ENDCHAR
STARTCHAR O
ENCODING 174
SWIDTH 878 0
DWIDTH 10 0
BBX 10 20 0 -5
BITMAP
0000
0000
1e00
3300
6180
6180
6180
6180
6180
6180
6180
6180
6180
3300
1e00
0000
0000
0000
0000
0000
ENDCHAR
STARTCHAR P
ENCODING 175
SWIDTH 878 0
DWIDTH 10 0
BBX 10 20 0 -5
BITMAP
0000
0000
7e00
6300
6180
6180
6180
6180
6300
7e00
6000
6000
6000
6000
6000
0000
0000
0000
0000
0000
ENDCHAR
STARTCHAR Q
ENCODING 176
SWIDTH 878 0
DWIDTH 10 0
BBX 10 20 0 -5
BITMAP
0000
0000
1e00
3300
6180
6180
6180
6180
6180
6180
6180
6d80
6780
3300
1f00
0180
0000
0000
0000
0000
ENDCHAR
STARTCHAR R
ENCODING 177
SWIDTH 878 0
DWIDTH 10 0
BBX 10 20 0 -5
BITMAP
0000
0000
7e00
6300
6180
6180
6180
6180
6300
7e00
6600
6300
6300
6180
6180
0000
0000
0000
0000
0000
ENDCHAR
STARTCHAR S
ENCODING 178
SWIDTH 878 0
DWIDTH 10 0
BBX 10 20 0 -5
BITMAP
0000
0000
1e00
3300
6180
6000
6000
3000
1e00
0300
0180
0180
6180
3300
1e00
0000
0000
0000
0000
0000
ENDCHAR
STARTCHAR T
ENCODING 179
SWIDTH 878 0
DWIDTH 10 0
BBX 10 20 0 -5
BITMAP
0000
0000
7f80
0c00
0c00
0c00
0c00
0c00
0c00
0c00
0c00
0c00
0c00
0c00
0c00
0000
0000
0000
0000
0000
ENDCHAR
STARTCHAR U
ENCODING 180
SWIDTH 878 0
DWIDTH 10 0
BBX 10 20 0 -5
BITMAP
0000
0000
6180
6180
6180
6180
6180
6180
6180
6180
6180
6180
6180
3300
1e00
0000
0000
0000
0000
0000
ENDCHAR
STARTCHAR V
ENCODING 181
SWIDTH 878 0
DWIDTH 10 0
BBX 10 20 0 -5
BITMAP
0000
0000
6180
6180
6180
6180
3300
3300
3300
1e00
1e00
1e00
0c00
0c00
0c00
0000
0000
0000
0000
0000
ENDCHAR
STARTCHAR W
ENCODING 182
SWIDTH 878 0
DWIDTH 10 0
BBX 10 20 0 -5
BITMAP
0000
0000
6180
6180
6180
6180
6180
6d80
6d80
6d80
6d80
7380
7380
6180
6180
0000
0000
0000
0000
0000
ENDCHAR
STARTCHAR X
ENCODING 183
SWIDTH 878 0
DWIDTH 10 0
BBX 10 20 0 -5
BITMAP
0000
0000
6180
6180
3300
3300
1e00
1e00
0c00
1e00
1e00
3300
3300
6180
6180
0000
0000
0000
0000
0000
ENDCHAR
STARTCHAR Y
ENCODING 184
SWIDTH 878 0
DWIDTH 10 0
BBX 10 20 0 -5
BITMAP
0000
0000
6180
6180
3300
3300
1e00
1e00
0c00
0c00
0c00
0c00
0c00
0c00
0c00
0000
0000
0000
0000
0000
ENDCHAR
STARTCHAR Z
ENCODING 185
SWIDTH 878 0
DWIDTH 10 0
BBX 10 20 0 -5
BITMAP
0000
0000
7f80
0180
0180
0300
0600
0600
0c00
1800
1800
3000
6000
6000
7f80
0000
0000
0000
0000
0000
ENDCHAR
STARTCHAR greek_capital_letter_zeta
ENCODING 186
SWIDTH 878 0
DWIDTH 10 0
BBX 8 12 2 0
BITMAP
ff
83
86
0c
0c
18
30
30
60
c1
c1
ff
ENDCHAR
STARTCHAR greek_capital_letter_psi
ENCODING 187
SWIDTH 878 0
DWIDTH 10 0
BBX 10 12 1 0
BITMAP
1e00
0c00
0c00
0c00
ccc0
6d80
6d80
6d80
3f00
0c00
0c00
3f00
ENDCHAR
STARTCHAR greek_capital_letter_epsilon
ENCODING 188
SWIDTH 878 0
DWIDTH 10 0
BBX 8 12 2 0
BITMAP
ff
61
61
60
62
7e
62
60
60
61
61
ff
ENDCHAR
STARTCHAR greek_capital_letter_eta
ENCODING 189
SWIDTH 878 0
DWIDTH 10 0
BBX 10 12 1 0
BITMAP
f3c0
6180
6180
6180
6180
7f80
6180
6180
6180
6180
6180
f3c0
ENDCHAR
STARTCHAR semicolon
ENCODING 190
SWIDTH 878 0
DWIDTH 10 0
BBX 10 20 0 -5
BITMAP
0000
0000
0000
0000
0000
0e00
0e00
0000
0000
0000
0000
0e00
0e00
1c00
0000
0000
0000
0000
0000
0000
ENDCHAR
STARTCHAR asterisk
ENCODING 191
SWIDTH 878 0
DWIDTH 10 0
BBX 10 20 0 -5
BITMAP
0000
0000
0000
0000
0000
3300
3300
1e00
7f80
1e00
3300
3300
0000
0000
0000
0000
0000
0000
0000
0000
ENDCHAR
STARTCHAR c0
ENCODING 192
SWIDTH 878 0
DWIDTH 10 0
BBX 10 20 0 -5
BITMAP
0000
0000
0000
0000
0000
0000
0000
0000
0000
0000
0000
0000
0000
0000
0000
0000
0000
0000
0000
0000
ENDCHAR
STARTCHAR c1
ENCODING 193
SWIDTH 878 0
DWIDTH 10 0
BBX 10 20 0 -5
BITMAP
0000
0000
0000
0000
0000
0000
0000
0000
0000
0000
0000
0000
0000
0000
0000
0000
0000
0000
0000
0000
ENDCHAR
STARTCHAR c2
ENCODING 194
SWIDTH 878 0
DWIDTH 10 0
BBX 10 20 0 -5
BITMAP
0000
0000
0000
0000
0000
0000
0000
0000
0000
0000
0000
0000
0000
0000
0000
0000
0000
0000
0000
0000
ENDCHAR
STARTCHAR c3
ENCODING 195
SWIDTH 878 0
DWIDTH 10 0
BBX 10 20 0 -5
BITMAP
0000
0000
0000
0000
0000
0000
0000
0000
0000
0000
0000
0000
0000
0000
0000
0000
0000
0000
0000
0000
ENDCHAR
STARTCHAR c4
ENCODING 196
SWIDTH 878 0
DWIDTH 10 0
BBX 10 20 0 -5
BITMAP
0000
0000
0000
0000
0000
0000
0000
0000
0000
0000
0000
0000
0000
0000
0000
0000
0000
0000
0000
0000
ENDCHAR
STARTCHAR c5
ENCODING 197
SWIDTH 878 0
DWIDTH 10 0
BBX 10 20 0 -5
BITMAP
0000
0000
0000
0000
0000
0000
0000
0000
0000
0000
0000
0000
0000
0000
0000
0000
0000
0000
0000
0000
ENDCHAR
STARTCHAR c6
ENCODING 198
SWIDTH 878 0
DWIDTH 10 0
BBX 10 20 0 -5
BITMAP
0000
0000
0000
0000
0000
0000
0000
0000
0000
0000
0000
0000
0000
0000
0000
0000
0000
0000
0000
0000
ENDCHAR
STARTCHAR c7
ENCODING 199
SWIDTH 878 0
DWIDTH 10 0
BBX 10 20 0 -5
BITMAP
0000
0000
0000
0000
0000
0000
0000
0000
0000
0000
0000
0000
0000
0000
0000
0000
0000
0000
0000
0000
ENDCHAR
STARTCHAR c8
ENCODING 200
SWIDTH 878 0
DWIDTH 10 0
BBX 10 20 0 -5
BITMAP
0000
0000
0000
0000
0000
0000
0000
0000
0000
0000
0000
0000
0000
0000
0000
0000
0000
0000
0000
0000
ENDCHAR
STARTCHAR c9
ENCODING 201
SWIDTH 878 0
DWIDTH 10 0
BBX 10 20 0 -5
BITMAP
0000
0000
0000
0000
0000
0000
0000
0000
0000
0000
0000
0000
0000
0000
0000
0000
0000
0000
0000
0000
ENDCHAR
STARTCHAR ca
ENCODING 202
SWIDTH 878 0
DWIDTH 10 0
BBX 10 20 0 -5
BITMAP
0000
0000
0000
0000
0000
0000
0000
0000
0000
0000
0000
0000
0000
0000
0000
0000
0000
0000
0000
0000
ENDCHAR
STARTCHAR cb
ENCODING 203
SWIDTH 878 0
DWIDTH 10 0
BBX 10 20 0 -5
BITMAP
0000
0000
0000
0000
0000
0000
0000
0000
0000
0000
0000
0000
0000
0000
0000
0000
0000
0000
0000
0000
ENDCHAR
STARTCHAR cc
ENCODING 204
SWIDTH 878 0
DWIDTH 10 0
BBX 10 20 0 -5
BITMAP
0000
0000
0000
0000
0000
0000
0000
0000
0000
0000
0000
0000
0000
0000
0000
0000
0000
0000
0000
0000
ENDCHAR
STARTCHAR cd
ENCODING 205
SWIDTH 878 0
DWIDTH 10 0
BBX 10 20 0 -5
BITMAP
0000
0000
0000
0000
0000
0000
0000
0000
0000
0000
0000
0000
0000
0000
0000
0000
0000
0000
0000
0000
ENDCHAR
STARTCHAR ce
ENCODING 206
SWIDTH 878 0
DWIDTH 10 0
BBX 10 20 0 -5
BITMAP
0000
0000
0000
0000
0000
0000
0000
0000
0000
0000
0000
0000
0000
0000
0000
0000
0000
0000
0000
0000
ENDCHAR
STARTCHAR cf
ENCODING 207
SWIDTH 878 0
DWIDTH 10 0
BBX 10 20 0 -5
BITMAP
0000
0000
0000
0000
0000
0000
0000
0000
0000
0000
0000
0000
0000
0000
0000
0000
0000
0000
0000
0000
ENDCHAR
STARTCHAR copyright
ENCODING 208
SWIDTH 878 0
DWIDTH 10 0
BBX 10 20 0 -5
BITMAP
0000
0000
0000
0000
1e00
3300
6180
5e80
5280
5080
5280
5e80
6180
3300
1e00
0000
0000
0000
0000
0000
ENDCHAR
STARTCHAR undefined_ae
ENCODING 209
SWIDTH 878 0
DWIDTH 10 0
BBX 10 20 0 -5
BITMAP
0000
0000
0000
0000
0000
0000
0000
0000
0000
0000
0000
0000
0000
0000
0000
0000
0000
0000
0000
0000
ENDCHAR
STARTCHAR boxA
ENCODING 210
SWIDTH 878 0
DWIDTH 10 0
BBX 10 20 0 -5
BITMAP
0000
0000
1800
1800
2400
2400
4200
4200
7e00
4200
4200
4200
0000
ffc0
8040
8040
ffc0
0000
0000
0000
ENDCHAR
STARTCHAR insert
ENCODING 211
SWIDTH 878 0
DWIDTH 10 0
BBX 10 20 0 -5
BITMAP
0000
0000
0000
0000
0000
0000
0c00
1e00
3f00
7f80
f3c0
e1c0
c0c0
0000
0000
0000
0000
0000
0000
0000
ENDCHAR
STARTCHAR boxB
ENCODING 212
SWIDTH 878 0
DWIDTH 10 0
BBX 10 20 0 -5
BITMAP
0000
0000
1e00
1100
1100
1100
1f00
1080
1080
1080
1080
1f00
0000
ffc0
8040
8040
ffc0
0000
0000
0000
ENDCHAR
STARTCHAR box6
ENCODING 213
SWIDTH 878 0
DWIDTH 10 0
BBX 10 20 0 -5
BITMAP
0000
ffc0
8040
8040
8c40
9240
a040
a040
ac40
b240
a140
a140
a140
9240
8c40
8040
ffc0
0000
0000
0000
ENDCHAR
STARTCHAR plusminus
ENCODING 214
SWIDTH 878 0
DWIDTH 10 0
BBX 10 20 0 -5
BITMAP
0000
0000
0000
0000
0c00
0c00
7f80
7f80
0c00
0c00
0000
7f80
7f80
0000
0000
0000
0000
0000
0000
0000
ENDCHAR
STARTCHAR greek_capital_letter_pi
ENCODING 215
SWIDTH 878 0
DWIDTH 10 0
BBX 10 12 1 0
BITMAP
ffc0
6180
6180
6180
6180
6180
6180
6180
6180
6180
6180
f3c0
ENDCHAR
STARTCHAR rightarrow
ENCODING 216
SWIDTH 878 0
DWIDTH 10 0
BBX 10 20 0 -5
BITMAP
0000
0000
0000
0000
0000
0000
0400
0600
0700
ff80
ff80
0700
0600
0400
0000
0000
0000
0000
0000
0000
ENDCHAR
STARTCHAR greek_small_letter_eta_with_tonos
ENCODING 217
SWIDTH 878 0
DWIDTH 10 0
BBX 9 17 1 -3
BITMAP
0600
0600
0400
0400
0000
0000
6e00
bb00
3180
3180
3180
3180
3180
3180
1180
0180
0080
ENDCHAR
STARTCHAR upshift
ENCODING 218
SWIDTH 878 0
DWIDTH 10 0
BBX 10 20 0 -5
BITMAP
0000
0000
0c00
1200
1200
2100
2100
4080
7380
1200
1200
1200
1200
1200
1200
1200
1e00
0000
0000
0000
ENDCHAR
STARTCHAR human
ENCODING 219
SWIDTH 878 0
DWIDTH 10 0
BBX 10 20 0 -5
BITMAP
0000
0000
0000
1c00
2200
2200
2200
1c00
0800
7f00
0800
0800
1400
2200
4100
0000
0000
0000
0000
0000
ENDCHAR
STARTCHAR underB
ENCODING 220
SWIDTH 878 0
DWIDTH 10 0
BBX 10 20 0 -5
BITMAP
0000
3c00
2200
2100
2200
3c00
2200
2100
2100
2200
3c00
0000
ffc0
ffc0
0000
0000
0000
0000
0000
0000
ENDCHAR
STARTCHAR downshift
ENCODING 221
SWIDTH 878 0
DWIDTH 10 0
BBX 10 20 0 -5
BITMAP
0000
0000
1e00
1200
1200
1200
1200
1200
1200
1200
7380
4080
2100
2100
1200
1200
0c00
0000
0000
0000
ENDCHAR
STARTCHAR boxquestion
ENCODING 222
SWIDTH 878 0
DWIDTH 10 0
BBX 12 20 0 -5
BITMAP
0000
ffc0
8040
8040
9e40
a140
a140
8140
8240
8440
8840
8840
8040
8840
8840
8040
ffc0
0000
0000
0000
ENDCHAR
STARTCHAR boxsolid
ENCODING 223
SWIDTH 878 0
DWIDTH 10 0
BBX 12 20 0 -5
BITMAP
0000
ffc0
ffc0
ffc0
ffc0
ffc0
ffc0
ffc0
ffc0
ffc0
ffc0
ffc0
ffc0
ffc0
ffc0
ffc0
ffc0
0000
0000
0000
ENDCHAR
STARTCHAR e0
ENCODING 224
SWIDTH 878 0
DWIDTH 10 0
BBX 10 20 0 -5
BITMAP
0000
0000
0000
0000
0000
0000
0000
0000
0000
0000
0000
0000
0000
0000
0000
0000
0000
0000
0000
0000
ENDCHAR
STARTCHAR e1
ENCODING 225
SWIDTH 878 0
DWIDTH 10 0
BBX 10 20 0 -5
BITMAP
0000
0000
0000
0000
0000
0000
0000
0000
0000
0000
0000
0000
0000
0000
0000
0000
0000
0000
0000
0000
ENDCHAR
STARTCHAR e2
ENCODING 226
SWIDTH 878 0
DWIDTH 10 0
BBX 10 20 0 -5
BITMAP
0000
0000
0000
0000
0000
0000
0000
0000
0000
0000
0000
0000
0000
0000
0000
0000
0000
0000
0000
0000
ENDCHAR
STARTCHAR e3
ENCODING 227
SWIDTH 878 0
DWIDTH 10 0
BBX 10 20 0 -5
BITMAP
0000
0000
0000
0000
0000
0000
0000
0000
0000
0000
0000
0000
0000
0000
0000
0000
0000
0000
0000
0000
ENDCHAR
STARTCHAR e4
ENCODING 228
SWIDTH 878 0
DWIDTH 10 0
BBX 10 20 0 -5
BITMAP
0000
0000
0000
0000
0000
0000
0000
0000
0000
0000
0000
0000
0000
0000
0000
0000
0000
0000
0000
0000
ENDCHAR
STARTCHAR e5
ENCODING 229
SWIDTH 878 0
DWIDTH 10 0
BBX 10 20 0 -5
BITMAP
0000
0000
0000
0000
0000
0000
0000
0000
0000
0000
0000
0000
0000
0000
0000
0000
0000
0000
0000
0000
ENDCHAR
STARTCHAR e6
ENCODING 230
SWIDTH 878 0
DWIDTH 10 0
BBX 10 20 0 -5
BITMAP
0000
0000
0000
0000
0000
0000
0000
0000
0000
0000
0000
0000
0000
0000
0000
0000
0000
0000
0000
0000
ENDCHAR
STARTCHAR e7
ENCODING 231
SWIDTH 878 0
DWIDTH 10 0
BBX 10 20 0 -5
BITMAP
0000
0000
0000
0000
0000
0000
0000
0000
0000
0000
0000
0000
0000
0000
0000
0000
0000
0000
0000
0000
ENDCHAR
STARTCHAR e8
ENCODING 232
SWIDTH 878 0
DWIDTH 10 0
BBX 10 20 0 -5
BITMAP
0000
0000
0000
0000
0000
0000
0000
0000
0000
0000
0000
0000
0000
0000
0000
0000
0000
0000
0000
0000
ENDCHAR
STARTCHAR e9
ENCODING 233
SWIDTH 878 0
DWIDTH 10 0
BBX 10 20 0 -5
BITMAP
0000
0000
0000
0000
0000
0000
0000
0000
0000
0000
0000
0000
0000
0000
0000
0000
0000
0000
0000
0000
ENDCHAR
STARTCHAR ea
ENCODING 234
SWIDTH 878 0
DWIDTH 10 0
BBX 10 20 0 -5
BITMAP
0000
0000
0000
0000
0000
0000
0000
0000
0000
0000
0000
0000
0000
0000
0000
0000
0000
0000
0000
0000
ENDCHAR
STARTCHAR eb
ENCODING 235
SWIDTH 878 0
DWIDTH 10 0
BBX 10 20 0 -5
BITMAP
0000
0000
0000
0000
0000
0000
0000
0000
0000
0000
0000
0000
0000
0000
0000
0000
0000
0000
0000
0000
ENDCHAR
STARTCHAR ec
ENCODING 236
SWIDTH 878 0
DWIDTH 10 0
BBX 10 20 0 -5
BITMAP
0000
0000
0000
0000
0000
0000
0000
0000
0000
0000
0000
0000
0000
0000
0000
0000
0000
0000
0000
0000
ENDCHAR
STARTCHAR ed
ENCODING 237
SWIDTH 878 0
DWIDTH 10 0
BBX 10 20 0 -5
BITMAP
0000
0000
0000
0000
0000
0000
0000
0000
0000
0000
0000
0000
0000
0000
0000
0000
0000
0000
0000
0000
ENDCHAR
STARTCHAR ee
ENCODING 238
SWIDTH 878 0
DWIDTH 10 0
BBX 10 20 0 -5
BITMAP
0000
0000
0000
0000
0000
0000
0000
0000
0000
0000
0000
0000
0000
0000
0000
0000
0000
0000
0000
0000
ENDCHAR
STARTCHAR ef
ENCODING 239
SWIDTH 878 0
DWIDTH 10 0
BBX 10 20 0 -5
BITMAP
0000
0000
0000
0000
0000
0000
0000
0000
0000
0000
0000
0000
0000
0000
0000
0000
0000
0000
0000
0000
ENDCHAR
STARTCHAR badcommhi
ENCODING 240
SWIDTH 878 0
DWIDTH 10 0
BBX 10 20 0 -5
BITMAP
0000
0000
0000
8000
c000
e000
7000
ffc0
ffc0
0e00
0700
0380
01c0
00c0
0040
0000
0000
0000
0000
0000
ENDCHAR
STARTCHAR commhi
ENCODING 241
SWIDTH 878 0
DWIDTH 10 0
BBX 10 20 0 -5
BITMAP
0000
0000
0000
0000
0000
0000
0000
ffc0
ffc0
0000
0000
0000
0000
0000
0000
0000
0000
0000
0000
0000
ENDCHAR
STARTCHAR commjag
ENCODING 242
SWIDTH 878 0
DWIDTH 10 0
BBX 10 20 0 -5
BITMAP
0000
0000
0000
0000
0000
0000
0000
fe00
fe00
0c00
1800
3fc0
3fc0
0000
0000
0000
0000
0000
0000
0000
ENDCHAR
STARTCHAR commlo
ENCODING 243
SWIDTH 878 0
DWIDTH 10 0
BBX 10 20 0 -5
BITMAP
0000
0000
0000
0000
0000
0000
0000
0000
0000
0000
0000
ffc0
ffc0
0000
0000
0000
0000
0000
0000
0000
ENDCHAR
STARTCHAR clockleft
ENCODING 244
SWIDTH 878 0
DWIDTH 10 0
BBX 10 20 0 -5
BITMAP
0000
0000
0000
0000
0080
0400
0000
1000
0000
0040
2080
0080
0080
1080
0080
0400
0080
0000
0000
0000
ENDCHAR
STARTCHAR clockright
ENCODING 245
SWIDTH 878 0
DWIDTH 10 0
BBX 10 20 0 -5
BITMAP
0000
0000
0000
0000
2000
0000
2800
4000
8000
0000
0400
0000
0000
0800
0000
2000
0000
0000
0000
0000
ENDCHAR
STARTCHAR lock
ENCODING 246
SWIDTH 878 0
DWIDTH 10 0
BBX 10 20 0 -5
BITMAP
0000
0000
8040
c0c0
e1c0
f3c0
7f80
3f00
1e00
3f00
7f80
f3c0
e1c0
c0c0
8040
0000
0000
0000
0000
0000
ENDCHAR
STARTCHAR greek_small_letter_pi
ENCODING 247
SWIDTH 878 0
DWIDTH 10 0
BBX 10 8 1 0
BITMAP
3fc0
7f80
9200
1200
1200
3240
33c0
6180
ENDCHAR
STARTCHAR leftarrow
ENCODING 248
SWIDTH 878 0
DWIDTH 10 0
BBX 10 20 0 -5
BITMAP
0000
0000
0000
0000
0000
0000
0800
1800
3800
7fc0
7fc0
3800
1800
0800
0000
0000
0000
0000
0000
0000
ENDCHAR
STARTCHAR greek_small_letter_omega_with_tonos
ENCODING 249
SWIDTH 878 0
DWIDTH 10 0
BBX 10 13 1 0
BITMAP
0c00
0c00
0800
0800
0000
6100
c080
80c0
8cc0
8cc0
ccc0
ffc0
7380
ENDCHAR
STARTCHAR keyleft
ENCODING 250
SWIDTH 878 0
DWIDTH 10 0
BBX 10 20 0 -5
BITMAP
0000
0000
0000
0000
0000
0000
0e00
1f00
3180
31c0
3180
1f00
0e00
0000
0000
0000
0000
0000
0000
0000
ENDCHAR
STARTCHAR keyright
ENCODING 251
SWIDTH 878 0
DWIDTH 10 0
BBX 10 20 0 -5
BITMAP
0000
0000
0000
0000
0000
0000
0000
0000
0000
ff80
1d80
1d80
0180
0000
0000
0000
0000
0000
0000
0000
ENDCHAR
STARTCHAR box4
ENCODING 252
SWIDTH 878 0
DWIDTH 10 0
BBX 10 20 0 -5
BITMAP
0000
ffc0
8040
8040
8240
8640
8a40
9240
a240
a240
bf40
8240
8240
8240
8240
8040
ffc0
0000
0000
0000
ENDCHAR
STARTCHAR underA
ENCODING 253
SWIDTH 878 0
DWIDTH 10 0
BBX 10 20 0 -5
BITMAP
0000
0000
0c00
0c00
1200
1200
2100
3f00
2100
2100
2100
0000
ffc0
ffc0
0000
0000
0000
0000
0000
0000
ENDCHAR
STARTCHAR magcard
ENCODING 254
SWIDTH 878 0
DWIDTH 10 0
BBX 10 20 0 -5
BITMAP
0000
0000
0000
0000
0000
ffc0
8040
8040
8040
8040
ffc0
8040
8040
ffc0
0000
0000
0000
0000
0000
0000
ENDCHAR
STARTCHAR boxhuman
ENCODING 255
SWIDTH 878 0
DWIDTH 10 0
BBX 10 20 0 -5
BITMAP
0000
ffc0
8040
8e40
9140
9140
8e40
8440
bfc0
8440
8440
8440
8440
8a40
9140
a0c0
ffc0
0000
0000
0000
ENDCHAR
STARTCHAR apl_space
ENCODING 272
SWIDTH 878 0
DWIDTH 10 0
BBX 10 20 0 -5
BITMAP
0000
0000
0000
0000
0000
0000
0000
0000
0000
0000
0000
0000
0000
0000
0000
0000
0000
0000
0000
0000
ENDCHAR
STARTCHAR apl_bracketright
ENCODING 316
SWIDTH 878 0
DWIDTH 10 0
BBX 10 20 0 -5
BITMAP
0000
0000
3f00
0300
0300
0300
0300
0300
0300
0300
0300
0300
0300
0300
3f00
0000
0000
0000
0000
0000
ENDCHAR
STARTCHAR apl_bracketleft
ENCODING 328
SWIDTH 878 0
DWIDTH 10 0
BBX 10 20 0 -5
BITMAP
0000
0000
3f00
3000
3000
3000
3000
3000
3000
3000
3000
3000
3000
3000
3f00
0000
0000
0000
0000
0000
ENDCHAR
STARTCHAR apl_stile
ENCODING 347
SWIDTH 878 0
DWIDTH 10 0
BBX 10 20 0 -5
BITMAP
0c00
0c00
0c00
0c00
0c00
0c00
0c00
0c00
0c00
0c00
0c00
0c00
0c00
0c00
0c00
0c00
0c00
0c00
0c00
0c00
ENDCHAR
STARTCHAR apl_2vertical
ENCODING 384
SWIDTH 878 0
DWIDTH 10 0
BBX 10 20 0 -5
BITMAP
6180
6180
6180
6180
6180
6180
6180
6180
6180
6180
6180
6180
6180
6180
6180
6180
6180
6180
6180
6180
ENDCHAR
STARTCHAR apl_2horizontal
ENCODING 385
SWIDTH 878 0
DWIDTH 10 0
BBX 10 20 0 -5
BITMAP
0000
0000
ffc0
0000
0000
0000
0000
0000
0000
0000
0000
0000
0000
0000
0000
0000
0000
ffc0
0000
0000
ENDCHAR
STARTCHAR apl_leftvbar
ENCODING 386
SWIDTH 878 0
DWIDTH 10 0
BBX 10 20 0 -5
BITMAP
6000
6000
6000
6000
6000
6000
6000
6000
6000
6000
6000
6000
6000
6000
6000
6000
6000
6000
6000
6000
ENDCHAR
STARTCHAR apl_rightvbar
ENCODING 387
SWIDTH 878 0
DWIDTH 10 0
BBX 10 20 0 -5
BITMAP
0180
0180
0180
0180
0180
0180
0180
0180
0180
0180
0180
0180
0180
0180
0180
0180
0180
0180
0180
0180
ENDCHAR
STARTCHAR apl_midvbar
ENCODING 388
SWIDTH 878 0
DWIDTH 10 0
BBX 10 20 0 -5
BITMAP
0c00
0c00
0c00
0c00
0c00
0c00
0c00
0c00
0c00
0c00
0c00
0c00
0c00
0c00
0c00
0c00
0c00
0c00
0c00
0c00
ENDCHAR
STARTCHAR apl_leftsolid
ENCODING 393
SWIDTH 878 0
DWIDTH 10 0
BBX 10 20 0 -5
BITMAP
fc00
fc00
fc00
fc00
fc00
fc00
fc00
fc00
fc00
fc00
fc00
fc00
fc00
fc00
fc00
fc00
fc00
fc00
fc00
fc00
ENDCHAR
STARTCHAR apl_rightsolid
ENCODING 394
SWIDTH 878 0
DWIDTH 10 0
BBX 10 20 0 -5
BITMAP
07c0
07c0
07c0
07c0
07c0
07c0
07c0
07c0
07c0
07c0
07c0
07c0
07c0
07c0
07c0
07c0
07c0
07c0
07c0
07c0
ENDCHAR
STARTCHAR apl_topsolid
ENCODING 395
SWIDTH 878 0
DWIDTH 10 0
BBX 10 20 0 -5
BITMAP
ffc0
ffc0
ffc0
ffc0
ffc0
ffc0
ffc0
ffc0
ffc0
ffc0
0000
0000
0000
0000
0000
0000
0000
0000
0000
0000
ENDCHAR
STARTCHAR apl_bottomsolid
ENCODING 396
SWIDTH 878 0
DWIDTH 10 0
BBX 10 20 0 -5
BITMAP
0000
0000
0000
0000
0000
0000
0000
0000
0000
0000
ffc0
ffc0
ffc0
ffc0
ffc0
ffc0
ffc0
ffc0
ffc0
ffc0
ENDCHAR
STARTCHAR apl_solid
ENCODING 397
SWIDTH 878 0
DWIDTH 10 0
BBX 10 20 0 -5
BITMAP
ffc0
ffc0
ffc0
ffc0
ffc0
ffc0
ffc0
ffc0
ffc0
ffc0
ffc0
ffc0
ffc0
ffc0
ffc0
ffc0
ffc0
ffc0
ffc0
ffc0
ENDCHAR
STARTCHAR apl_midhbar
ENCODING 402
SWIDTH 878 0
DWIDTH 10 0
BBX 10 20 0 -5
BITMAP
0000
0000
0000
0000
0000
0000
0000
0000
0000
ffc0
0000
0000
0000
0000
0000
0000
0000
0000
0000
0000
ENDCHAR
STARTCHAR apl_lowerleft
ENCODING 419
SWIDTH 878 0
DWIDTH 10 0
BBX 10 20 0 -5
BITMAP
0c00
0c00
0c00
0c00
0c00
0c00
0c00
0c00
0c00
0fc0
0000
0000
0000
0000
0000
0000
0000
0000
0000
0000
ENDCHAR
STARTCHAR apl_upperleft
ENCODING 420
SWIDTH 878 0
DWIDTH 10 0
BBX 10 20 0 -5
BITMAP
0000
0000
0000
0000
0000
0000
0000
0000
0000
0fc0
0c00
0c00
0c00
0c00
0c00
0c00
0c00
0c00
0c00
0c00
ENDCHAR
STARTCHAR apl_leftjoin
ENCODING 421
SWIDTH 878 0
DWIDTH 10 0
BBX 10 20 0 -5
BITMAP
0c00
0c00
0c00
0c00
0c00
0c00
0c00
0c00
0c00
0fc0
0c00
0c00
0c00
0c00
0c00
0c00
0c00
0c00
0c00
0c00
ENDCHAR
STARTCHAR apl_bottomjoin
ENCODING 422
SWIDTH 878 0
DWIDTH 10 0
BBX 10 20 0 -5
BITMAP
0c00
0c00
0c00
0c00
0c00
0c00
0c00
0c00
0c00
ffc0
0000
0000
0000
0000
0000
0000
0000
0000
0000
0000
ENDCHAR
STARTCHAR apl_intersect
ENCODING 427
SWIDTH 878 0
DWIDTH 10 0
BBX 10 20 0 -5
BITMAP
0c00
0c00
0c00
0c00
0c00
0c00
0c00
0c00
0c00
ffc0
0c00
0c00
0c00
0c00
0c00
0c00
0c00
0c00
0c00
0c00
ENDCHAR
STARTCHAR apl_lowerright
ENCODING 428
SWIDTH 878 0
DWIDTH 10 0
BBX 10 20 0 -5
BITMAP
0c00
0c00
0c00
0c00
0c00
0c00
0c00
0c00
0c00
fc00
0000
0000
0000
0000
0000
0000
0000
0000
0000
0000
ENDCHAR
STARTCHAR apl_upperright
ENCODING 429
SWIDTH 878 0
DWIDTH 10 0
BBX 10 20 0 -5
BITMAP
0000
0000
0000
0000
0000
0000
0000
0000
0000
fc00
0c00
0c00
0c00
0c00
0c00
0c00
0c00
0c00
0c00
0c00
ENDCHAR
STARTCHAR apl_rightjoin
ENCODING 430
SWIDTH 878 0
DWIDTH 10 0
BBX 10 20 0 -5
BITMAP
0c00
0c00
0c00
0c00
0c00
0c00
0c00
0c00
0c00
fc00
0c00
0c00
0c00
0c00
0c00
0c00
0c00
0c00
0c00
0c00
ENDCHAR
STARTCHAR apl_topjoin
ENCODING 431
SWIDTH 878 0
DWIDTH 10 0
BBX 10 20 0 -5
BITMAP
0000
0000
0000
0000
0000
0000
0000
0000
0000
ffc0
0c00
0c00
0c00
0c00
0c00
0c00
0c00
0c00
0c00
0c00
ENDCHAR
STARTCHAR 200
ENCODING 512
SWIDTH 878 0
DWIDTH 10 0
BBX 10 20 0 -5
BITMAP
0000
0000
0000
0000
0000
0000
0000
0000
0000
0000
0000
0000
0000
0000
0000
0000
0000
0000
0000
0000
ENDCHAR
STARTCHAR 201
ENCODING 513
SWIDTH 878 0
DWIDTH 10 0
BBX 10 20 0 -5
BITMAP
0000
0000
0000
0000
0000
0c00
1e00
3f00
7f80
7f80
3f00
1e00
0c00
0000
0000
0000
0000
0000
0000
0000
ENDCHAR
STARTCHAR 202
ENCODING 514
SWIDTH 878 0
DWIDTH 10 0
BBX 10 20 0 -5
BITMAP
5540
aa80
5540
aa80
5540
aa80
5540
aa80
5540
aa80
5540
aa80
5540
aa80
5540
aa80
5540
aa80
5540
aa80
ENDCHAR
STARTCHAR 203
ENCODING 515
SWIDTH 878 0
DWIDTH 10 0
BBX 10 20 0 -5
BITMAP
0000
0000
0000
0000
6600
6600
6600
7e00
6600
6600
6600
0000
1f80
0600
0600
0600
0600
0600
0000
0000
ENDCHAR
STARTCHAR 204
ENCODING 516
SWIDTH 878 0
DWIDTH 10 0
BBX 10 20 0 -5
BITMAP
0000
0000
0000
0000
7c00
6000
6000
7800
6000
6000
6000
0f80
0c00
0c00
0f00
0c00
0c00
0c00
0000
0000
ENDCHAR
STARTCHAR 205
ENCODING 517
SWIDTH 878 0
DWIDTH 10 0
BBX 10 20 0 -5
BITMAP
0000
0000
0000
0000
3c00
6600
6000
6000
6600
3c00
0000
1f00
1980
1980
1f00
1e00
1b00
1980
0000
0000
ENDCHAR
STARTCHAR 206
ENCODING 518
SWIDTH 878 0
DWIDTH 10 0
BBX 10 20 0 -5
BITMAP
0000
0000
0000
0000
3000
3000
3000
3000
3000
3e00
0000
0f80
0c00
0c00
0f00
0c00
0c00
0c00
0000
0000
ENDCHAR
STARTCHAR 207
ENCODING 519
SWIDTH 878 0
DWIDTH 10 0
BBX 10 20 0 -5
BITMAP
0000
0000
1e00
3300
3300
3300
1e00
0000
0000
0000
0000
0000
0000
0000
0000
0000
0000
0000
0000
0000
ENDCHAR
STARTCHAR 208
ENCODING 520
SWIDTH 878 0
DWIDTH 10 0
BBX 10 20 0 -5
BITMAP
0000
0000
0000
0000
0000
0000
0000
0000
0c00
0c00
7f80
0c00
0c00
0000
7f80
0000
0000
0000
0000
0000
ENDCHAR
STARTCHAR 209
ENCODING 521
SWIDTH 878 0
DWIDTH 10 0
BBX 10 20 0 -5
BITMAP
0000
0000
0000
0000
6600
7600
7e00
7e00
6e00
6600
0000
0c00
0c00
0c00
0c00
0c00
0c00
0f80
0000
0000
ENDCHAR
STARTCHAR 20a
ENCODING 522
SWIDTH 878 0
DWIDTH 10 0
BBX 10 20 0 -5
BITMAP
0000
0000
0000
0000
6600
6600
6600
3c00
3c00
1800
1800
0000
1f80
0600
0600
0600
0600
0600
0000
0000
ENDCHAR
STARTCHAR 20b
ENCODING 523
SWIDTH 878 0
DWIDTH 10 0
BBX 10 20 0 -5
BITMAP
0c00
0c00
0c00
0c00
0c00
0c00
0c00
0c00
0c00
fc00
0000
0000
0000
0000
0000
0000
0000
0000
0000
0000
ENDCHAR
STARTCHAR 20c
ENCODING 524
SWIDTH 878 0
DWIDTH 10 0
BBX 10 20 0 -5
BITMAP
0000
0000
0000
0000
0000
0000
0000
0000
0000
fc00
0c00
0c00
0c00
0c00
0c00
0c00
0c00
0c00
0c00
0c00
ENDCHAR
STARTCHAR 20d
ENCODING 525
SWIDTH 878 0
DWIDTH 10 0
BBX 10 20 0 -5
BITMAP
0000
0000
0000
0000
0000
0000
0000
0000
0000
0fc0
0c00
0c00
0c00
0c00
0c00
0c00
0c00
0c00
0c00
0c00
ENDCHAR
STARTCHAR 20e
ENCODING 526
SWIDTH 878 0
DWIDTH 10 0
BBX 10 20 0 -5
BITMAP
0c00
0c00
0c00
0c00
0c00
0c00
0c00
0c00
0c00
0fc0
0000
0000
0000
0000
0000
0000
0000
0000
0000
0000
ENDCHAR
STARTCHAR 20f
ENCODING 527
SWIDTH 878 0
DWIDTH 10 0
BBX 10 20 0 -5
BITMAP
0c00
0c00
0c00
0c00
0c00
0c00
0c00
0c00
0c00
ffc0
0c00
0c00
0c00
0c00
0c00
0c00
0c00
0c00
0c00
0c00
ENDCHAR
STARTCHAR 210
ENCODING 528
SWIDTH 878 0
DWIDTH 10 0
BBX 10 20 0 -5
BITMAP
0000
0000
0000
0000
ffc0
0000
0000
0000
0000
0000
0000
0000
0000
0000
0000
0000
0000
0000
0000
0000
ENDCHAR
STARTCHAR 211
ENCODING 529
SWIDTH 878 0
DWIDTH 10 0
BBX 10 20 0 -5
BITMAP
0000
0000
0000
0000
0000
0000
ffc0
0000
0000
0000
0000
0000
0000
0000
0000
0000
0000
0000
0000
0000
ENDCHAR
STARTCHAR 212
ENCODING 530
SWIDTH 878 0
DWIDTH 10 0
BBX 10 20 0 -5
BITMAP
0000
0000
0000
0000
0000
0000
0000
0000
0000
ffc0
0000
0000
0000
0000
0000
0000
0000
0000
0000
0000
ENDCHAR
STARTCHAR 213
ENCODING 531
SWIDTH 878 0
DWIDTH 10 0
BBX 10 20 0 -5
BITMAP
0000
0000
0000
0000
0000
0000
0000
0000
0000
0000
0000
0000
ffc0
0000
0000
0000
0000
0000
0000
0000
ENDCHAR
STARTCHAR 214
ENCODING 532
SWIDTH 878 0
DWIDTH 10 0
BBX 10 20 0 -5
BITMAP
0000
0000
0000
0000
0000
0000
0000
0000
0000
0000
0000
0000
0000
0000
0000
ffc0
0000
0000
0000
0000
ENDCHAR
STARTCHAR 215
ENCODING 533
SWIDTH 878 0
DWIDTH 10 0
BBX 10 20 0 -5
BITMAP
0c00
0c00
0c00
0c00
0c00
0c00
0c00
0c00
0c00
0fc0
0c00
0c00
0c00
0c00
0c00
0c00
0c00
0c00
0c00
0c00
ENDCHAR
STARTCHAR 216
ENCODING 534
SWIDTH 878 0
DWIDTH 10 0
BBX 10 20 0 -5
BITMAP
0c00
0c00
0c00
0c00
0c00
0c00
0c00
0c00
0c00
fc00
0c00
0c00
0c00
0c00
0c00
0c00
0c00
0c00
0c00
0c00
ENDCHAR
STARTCHAR 217
ENCODING 535
SWIDTH 878 0
DWIDTH 10 0
BBX 10 20 0 -5
BITMAP
0c00
0c00
0c00
0c00
0c00
0c00
0c00
0c00
0c00
ffc0
0000
0000
0000
0000
0000
0000
0000
0000
0000
0000
ENDCHAR
STARTCHAR 218
ENCODING 536
SWIDTH 878 0
DWIDTH 10 0
BBX 10 20 0 -5
BITMAP
0000
0000
0000
0000
0000
0000
0000
0000
0000
ffc0
0c00
0c00
0c00
0c00
0c00
0c00
0c00
0c00
0c00
0c00
ENDCHAR
STARTCHAR 219
ENCODING 537
SWIDTH 878 0
DWIDTH 10 0
BBX 10 20 0 -5
BITMAP
0c00
0c00
0c00
0c00
0c00
0c00
0c00
0c00
0c00
0c00
0c00
0c00
0c00
0c00
0c00
0c00
0c00
0c00
0c00
0c00
ENDCHAR
STARTCHAR 21a
ENCODING 538
SWIDTH 878 0
DWIDTH 10 0
BBX 10 20 0 -5
BITMAP
0000
0000
0000
0000
0000
01c0
0700
1c00
7000
1c00
0700
01c0
0000
0000
7fc0
0000
0000
0000
0000
0000
ENDCHAR
STARTCHAR 21b
ENCODING 539
SWIDTH 878 0
DWIDTH 10 0
BBX 10 20 0 -5
BITMAP
0000
0000
0000
0000
0000
7000
1c00
0700
01c0
0700
1c00
7000
0000
0000
7fc0
0000
0000
0000
0000
0000
ENDCHAR
STARTCHAR 21c
ENCODING 540
SWIDTH 878 0
DWIDTH 10 0
BBX 10 20 0 -5
BITMAP
0000
0000
0000
0000
0000
0000
0000
0080
3f80
5b00
1b00
1b00
1b00
1b00
3300
0000
0000
0000
0000
0000
ENDCHAR
STARTCHAR 21d
ENCODING 541
SWIDTH 878 0
DWIDTH 10 0
BBX 10 20 0 -5
BITMAP
0000
0000
0000
0000
0000
0000
0180
0300
7fc0
0600
0c00
7fc0
1800
3000
0000
0000
0000
0000
0000
0000
ENDCHAR
STARTCHAR 21e
ENCODING 542
SWIDTH 878 0
DWIDTH 10 0
BBX 10 20 0 -5
BITMAP
0000
0000
0f00
1980
1980
1800
1800
1800
7e00
1800
1800
1800
7c00
56c0
7380
0000
0000
0000
0000
0000
ENDCHAR
STARTCHAR 21f
ENCODING 543
SWIDTH 878 0
DWIDTH 10 0
BBX 10 20 0 -5
BITMAP
0000
0000
0000
0000
0000
0000
0000
0000
0c00
0c00
0000
0000
0000
0000
0000
0000
0000
0000
0000
0000
ENDCHAR
ENDFONT
